<?xml version="1.0" encoding="UTF-8" standalone="no"?><!DOCTYPE svg PUBLIC "-//W3C//DTD SVG 1.1//EN" "http://www.w3.org/Graphics/SVG/1.1/DTD/svg11.dtd"><svg width="100%" height="100%" viewBox="0 0 555 555" version="1.1" xmlns="http://www.w3.org/2000/svg" xmlns:xlink="http://www.w3.org/1999/xlink" xml:space="preserve" xmlns:serif="http://www.serif.com/" style="fill-rule:evenodd;clip-rule:evenodd;stroke-linejoin:round;stroke-miterlimit:2;"><path d="M277.5,0c153.156,0 277.5,124.344 277.5,277.5c0,153.156 -124.344,277.5 -277.5,277.5c-153.156,0 -277.5,-124.344 -277.5,-277.5c0,-153.156 124.344,-277.5 277.5,-277.5Zm0,52.846c123.99,0 224.654,100.664 224.654,224.654c0,123.99 -100.664,224.654 -224.654,224.654c-123.99,0 -224.654,-100.664 -224.654,-224.654c0,-123.99 100.664,-224.654 224.654,-224.654Z" style="fill:#fff;"/><path d="M411,277.5l-221,124.75l0,-249.5l221,124.75Z" style="fill:#fff;"/></svg>